<svg width="71" height="31" viewBox="0 0 71 31" fill="none" xmlns="http://www.w3.org/2000/svg">
<path d="M65.8585 23.0319L70.9719 30.6164H63.9413L59.8408 24.5338H54.316V30.6164H48.5151V0.658508H60.4791C66.3243 0.658508 71.063 5.46156 71.063 11.3892V13.8007C71.063 17.7316 68.9709 21.1602 65.8585 23.0319ZM54.3184 18.6487H59.7842C62.8078 18.6487 65.2597 16.1622 65.2597 13.096V12.0964C65.2597 9.03012 62.8078 6.54363 59.7842 6.54363H54.3184V18.6512V18.6487Z" fill="white"/>
<path d="M0.0629883 13.8007V11.3892C0.0629883 5.46156 4.79928 0.658508 10.6445 0.658508H22.6084V30.6189H16.8076V24.5363H11.2827L7.18221 30.6189H0.151701L5.26502 23.032C2.15514 21.1602 0.0629883 17.7341 0.0629883 13.8007ZM16.8076 6.54113H11.3419C8.31823 6.54113 5.8663 9.02762 5.8663 12.0939V13.0935C5.8663 16.1597 8.31823 18.6462 11.3419 18.6462H16.8076V6.53863V6.54113Z" fill="white"/>
<path d="M27.6257 0.658508H43.4117V6.56862C43.4117 7.24084 42.8745 7.78562 42.2116 7.78562H28.8283C28.1654 7.78562 27.6282 7.24084 27.6282 6.56862V0.658508H27.6257Z" fill="white"/>
<path d="M42.2116 9.29001H28.8258C28.163 9.29001 27.6257 9.83488 27.6257 10.507V20.7679C27.6257 21.44 28.163 21.9849 28.8258 21.9849H42.2116C42.8744 21.9849 43.4117 21.44 43.4117 20.7679V10.507C43.4117 9.83488 42.8744 9.29001 42.2116 9.29001Z" fill="white"/>
<path d="M28.8256 23.4918H42.209C42.8718 23.4918 43.409 24.0365 43.409 24.7088V30.6189H27.623V24.7088C27.623 24.0365 28.1603 23.4918 28.8231 23.4918H28.8256Z" fill="white"/>
<path d="M25.9302 0.658508H23.9268V2.69019H25.9302V0.658508Z" fill="white"/>
<path d="M25.9302 3.19748H23.9268V5.22916H25.9302V3.19748Z" fill="white"/>
<path d="M25.9302 5.73645H23.9268V7.76813H25.9302V5.73645Z" fill="white"/>
<path d="M25.9302 8.27542H23.9268V10.3071H25.9302V8.27542Z" fill="white"/>
<path d="M25.9302 10.8144H23.9268V12.8461H25.9302V10.8144Z" fill="white"/>
<path d="M25.9302 13.3534H23.9268V15.385H25.9302V13.3534Z" fill="white"/>
<path d="M25.9302 15.8923H23.9268V17.924H25.9302V15.8923Z" fill="white"/>
<path d="M25.9302 18.4313H23.9268V20.463H25.9302V18.4313Z" fill="white"/>
<path d="M25.9302 20.9703H23.9268V23.002H25.9302V20.9703Z" fill="white"/>
<path d="M25.9302 23.5093H23.9268V25.541H25.9302V23.5093Z" fill="white"/>
<path d="M25.9302 26.0482H23.9268V28.0799H25.9302V26.0482Z" fill="white"/>
<path d="M25.9302 28.5872H23.9268V30.6189H25.9302V28.5872Z" fill="white"/>
<path d="M47.3396 0.658508H45.3362V2.69019H47.3396V0.658508Z" fill="white"/>
<path d="M47.3396 3.19748H45.3362V5.22916H47.3396V3.19748Z" fill="white"/>
<path d="M47.3396 5.73645H45.3362V7.76813H47.3396V5.73645Z" fill="white"/>
<path d="M47.3396 8.27542H45.3362V10.3071H47.3396V8.27542Z" fill="white"/>
<path d="M47.3396 10.8144H45.3362V12.8461H47.3396V10.8144Z" fill="white"/>
<path d="M47.3396 13.3534H45.3362V15.385H47.3396V13.3534Z" fill="white"/>
<path d="M47.3396 15.8923H45.3362V17.924H47.3396V15.8923Z" fill="white"/>
<path d="M47.3396 18.4313H45.3362V20.463H47.3396V18.4313Z" fill="white"/>
<path d="M47.3396 20.9703H45.3362V23.002H47.3396V20.9703Z" fill="white"/>
<path d="M47.3396 23.5093H45.3362V25.541H47.3396V23.5093Z" fill="white"/>
<path d="M47.3396 26.0482H45.3362V28.0799H47.3396V26.0482Z" fill="white"/>
<path d="M47.3396 28.5872H45.3362V30.6189H47.3396V28.5872Z" fill="white"/>
</svg>
