<svg width="667" height="218" viewBox="0 0 667 218" fill="none" xmlns="http://www.w3.org/2000/svg">
<g filter="url(#filter0_d_2_169)">
<path d="M241 17.04H252C258.88 17.04 264.48 22.64 264.48 29.52V32.52C264.48 39.44 258.88 45 252 45H241V17.04ZM246.48 39.52H251.8C255.76 39.52 258.96 36.32 258.96 32.36V29.68C258.96 25.76 255.76 22.52 251.8 22.52H246.48V39.52ZM266.443 30.32C266.443 22.72 272.563 16.6 280.123 16.6H280.643C288.203 16.6 294.323 22.72 294.323 30.32V31.72C294.323 39.28 288.203 45.4 280.643 45.4H280.123C272.563 45.4 266.443 39.28 266.443 31.72V30.32ZM271.923 31.56C271.923 36.16 275.683 39.92 280.283 39.92H280.483C285.083 39.92 288.843 36.16 288.843 31.56V30.48C288.843 25.84 285.083 22.12 280.483 22.12H280.283C275.683 22.12 271.923 25.84 271.923 30.48V31.56ZM315.809 17.04H321.289V33.44C321.289 40.04 315.929 45.4 309.329 45.4H308.809C302.209 45.4 296.849 40.04 296.849 33.44V17.04H302.329V33.48C302.329 37.04 305.209 39.92 308.729 39.92H309.369C312.929 39.92 315.809 37.04 315.809 33.48V17.04ZM341.866 30.56C344.386 31 347.066 33.52 347.066 37.4C347.066 41.6 343.666 45 339.466 45H324.906V17.04H337.026C341.226 17.04 344.626 20.44 344.626 24.64C344.626 27.52 343.266 29.48 341.866 30.56ZM330.466 22.52V28.2H336.386C337.906 28.2 339.146 27 339.146 25.48V25.28C339.146 23.76 337.906 22.52 336.386 22.52H330.466ZM341.546 36.8V36.56C341.546 35.08 340.346 33.84 338.826 33.84H330.386V39.52H338.826C340.346 39.52 341.546 38.32 341.546 36.8ZM369.108 39.52V45H349.828V17.04H355.308V39.52H369.108ZM391.514 39.52V45H371.234V17.04H390.874V22.52H376.714V28.56H388.514V34.08H376.714V39.52H391.514Z" fill="white"/>
<path d="M429.156 29.32C429.156 33 427.196 36.2 424.236 37.92L429.076 45H422.436L418.556 39.32H413.316V45H407.836V17.04H419.156C424.676 17.04 429.156 21.52 429.156 27.08V29.32ZM413.316 22.52V33.84H418.476C421.356 33.84 423.676 31.52 423.676 28.64V27.72C423.676 24.84 421.356 22.52 418.476 22.52H413.316Z" fill="#FF0000"/>
<path d="M77.3 126C90.2 130.2 98.75 140.7 98.3 156.3C97.7 172.35 83 184.95 65.3 184.95H55.1C36.65 184.95 22.55 170.25 21.8 154.2H42.8C44.6 160.8 51.05 166.35 58.55 166.35C58.55 166.35 62.15 166.35 62.3 166.35C76.1 166.05 78.8 148.2 65.75 144C65.75 144 45.65 137.55 39.05 135.3C27.35 131.55 20.3 122.4 20.9 108.75C21.5 90.9 38 76.65 57.65 76.65H58.7C77.6 76.65 93.05 90 94.1 107.1H73.55C72.8 100.35 66.65 95.25 59.15 95.25H57.2C49.1 95.25 42.65 100.05 42.65 107.4C42.65 113.4 45.5 115.8 49.85 117.3L77.3 126ZM190.164 99H156.264V183.3H135.714V99H101.964V78.3H190.164V99ZM267.388 78.15H287.938V139.65C287.938 164.4 267.838 184.5 243.088 184.5H241.138C216.388 184.5 196.288 164.4 196.288 139.65V78.15H216.838V139.8C216.838 153.15 227.638 163.95 240.838 163.95H243.238C256.588 163.95 267.388 153.15 267.388 139.8V78.15ZM301.502 78.15H342.752C368.552 78.15 389.552 99.15 389.552 124.95V136.2C389.552 162.15 368.552 183 342.752 183H301.502V78.15ZM322.052 162.45H342.002C356.852 162.45 368.852 150.45 368.852 135.6V125.55C368.852 110.85 356.852 98.7 342.002 98.7H322.052V162.45ZM421.515 183H400.965V78.15H421.515V183ZM432.657 127.95C432.657 99.45 455.607 76.5 483.957 76.5H485.907C514.257 76.5 537.207 99.45 537.207 127.95V133.2C537.207 161.55 514.257 184.5 485.907 184.5H483.957C455.607 184.5 432.657 161.55 432.657 133.2V127.95ZM453.207 132.6C453.207 149.85 467.307 163.95 484.557 163.95H485.307C502.557 163.95 516.657 149.85 516.657 132.6V128.55C516.657 111.15 502.557 97.2 485.307 97.2H484.557C467.307 97.2 453.207 111.15 453.207 128.55V132.6ZM601.128 126C614.028 130.2 622.578 140.7 622.128 156.3C621.528 172.35 606.828 184.95 589.128 184.95H578.928C560.478 184.95 546.378 170.25 545.628 154.2H566.628C568.428 160.8 574.878 166.35 582.378 166.35C582.378 166.35 585.978 166.35 586.128 166.35C599.928 166.05 602.628 148.2 589.578 144C589.578 144 569.478 137.55 562.878 135.3C551.178 131.55 544.128 122.4 544.728 108.75C545.328 90.9 561.828 76.65 581.478 76.65H582.528C601.428 76.65 616.878 90 617.928 107.1H597.378C596.628 100.35 590.478 95.25 582.978 95.25H581.028C572.928 95.25 566.478 100.05 566.478 107.4C566.478 113.4 569.328 115.8 573.678 117.3L601.128 126Z" fill="white"/>
<path d="M645.893 168.3C646.343 168.75 646.643 169.2 646.643 169.8V181.05C646.643 181.5 646.343 182.1 646.043 182.55C645.593 183 645.143 183.15 644.393 183.15H632.243C630.893 183.15 630.143 182.4 630.143 181.05V169.8C630.143 169.2 630.443 168.75 630.743 168.3C631.043 168 631.643 167.7 632.243 167.7H644.393C644.993 167.7 645.443 168 645.893 168.3Z" fill="#FF0000"/>
</g>
<defs>
<filter id="filter0_d_2_169" x="0.300049" y="0.599998" width="666.343" height="208.35" filterUnits="userSpaceOnUse" color-interpolation-filters="sRGB">
<feFlood flood-opacity="0" result="BackgroundImageFix"/>
<feColorMatrix in="SourceAlpha" type="matrix" values="0 0 0 0 0 0 0 0 0 0 0 0 0 0 0 0 0 0 127 0" result="hardAlpha"/>
<feOffset dy="4"/>
<feGaussianBlur stdDeviation="10"/>
<feComposite in2="hardAlpha" operator="out"/>
<feColorMatrix type="matrix" values="0 0 0 0 0 0 0 0 0 0 0 0 0 0 0 0 0 0 0.34 0"/>
<feBlend mode="normal" in2="BackgroundImageFix" result="effect1_dropShadow_2_169"/>
<feBlend mode="normal" in="SourceGraphic" in2="effect1_dropShadow_2_169" result="shape"/>
</filter>
</defs>
</svg>
